<svg xmlns="http://www.w3.org/2000/svg" width="480" height="506" viewBox="0 0 480 506">
<defs>
  <style>
    @import url('https://fonts.googleapis.com/css2?family=Inter:wght@400;600&amp;display=swap');
    .bg { fill: #0d1117; rx: 10; }
    .title { font-family: 'Inter', 'Segoe UI', sans-serif; font-size: 16px; font-weight: 600; fill: #64b5f6; }
    .subtitle { font-family: 'Inter', 'Segoe UI', sans-serif; font-size: 11px; fill: #8b949e; }
    .lang-name { font-family: 'Inter', 'Segoe UI', sans-serif; font-size: 12px; fill: #e6edf3; }
    .lang-pct { font-family: 'Inter', 'Segoe UI', sans-serif; font-size: 11px; fill: #8b949e; }
    .bar-bg { fill: #161b22; rx: 4; }
    .top-bar-bg { fill: #161b22; rx: 6; }
  </style>
</defs>
<rect class="bg" width="480" height="506" rx="10"/>
<text class="title" x="20" y="30">📊 VincentZyuApps · 语言分布</text>
<text class="subtitle" x="20" y="48">共 954.6 KB 代码 · 自动更新于 2026-02-13</text>
<rect class="top-bar-bg" x="20" y="60" width="440" height="12"/>
<rect x="20.0" y="60" width="215.8" height="12" rx="0" fill="#3178c6"/>
<rect x="235.8" y="60" width="62.1" height="12" rx="0" fill="#f1e05a"/>
<rect x="297.9" y="60" width="48.7" height="12" rx="0" fill="#3572A5"/>
<rect x="346.7" y="60" width="33.0" height="12" rx="0" fill="#00ADD8"/>
<rect x="379.7" y="60" width="30.0" height="12" rx="0" fill="#b07219"/>
<rect x="409.7" y="60" width="27.8" height="12" rx="0" fill="#dea584"/>
<rect x="437.4" y="60" width="19.5" height="12" rx="0" fill="#f34b7d"/>
<rect x="457.0" y="60" width="1.0" height="12" rx="0" fill="#c6538c"/>
<rect x="458.0" y="60" width="1.0" height="12" rx="0" fill="#427819"/>
<rect x="459.0" y="60" width="1.0" height="12" rx="0" fill="#8b8b8b"/>
<rect x="460.0" y="60" width="1.0" height="12" rx="0" fill="#8b8b8b"/>
<rect x="20" y="60" width="440" height="12" rx="6" fill="none" stroke="#0d1117" stroke-width="0.5"/>
<circle cx="30" cy="116.0" r="5" fill="#3178c6"/>
<text class="lang-name" x="44" y="120.0">TypeScript</text>
<rect class="bar-bg" x="160" y="106.0" width="240" height="20"/>
<rect x="160" y="106.0" width="117.7" height="20" rx="4" fill="#3178c6" opacity="0.85"/>
<text class="lang-pct" x="410" y="120.0">49.0%</text>
<circle cx="30" cy="150.0" r="5" fill="#f1e05a"/>
<text class="lang-name" x="44" y="154.0">JavaScript</text>
<rect class="bar-bg" x="160" y="140.0" width="240" height="20"/>
<rect x="160" y="140.0" width="33.9" height="20" rx="4" fill="#f1e05a" opacity="0.85"/>
<text class="lang-pct" x="410" y="154.0">14.1%</text>
<circle cx="30" cy="184.0" r="5" fill="#3572A5"/>
<text class="lang-name" x="44" y="188.0">Python</text>
<rect class="bar-bg" x="160" y="174.0" width="240" height="20"/>
<rect x="160" y="174.0" width="26.6" height="20" rx="4" fill="#3572A5" opacity="0.85"/>
<text class="lang-pct" x="410" y="188.0">11.1%</text>
<circle cx="30" cy="218.0" r="5" fill="#00ADD8"/>
<text class="lang-name" x="44" y="222.0">Go</text>
<rect class="bar-bg" x="160" y="208.0" width="240" height="20"/>
<rect x="160" y="208.0" width="18.0" height="20" rx="4" fill="#00ADD8" opacity="0.85"/>
<text class="lang-pct" x="410" y="222.0">7.5%</text>
<circle cx="30" cy="252.0" r="5" fill="#b07219"/>
<text class="lang-name" x="44" y="256.0">Java</text>
<rect class="bar-bg" x="160" y="242.0" width="240" height="20"/>
<rect x="160" y="242.0" width="16.4" height="20" rx="4" fill="#b07219" opacity="0.85"/>
<text class="lang-pct" x="410" y="256.0">6.8%</text>
<circle cx="30" cy="286.0" r="5" fill="#dea584"/>
<text class="lang-name" x="44" y="290.0">Rust</text>
<rect class="bar-bg" x="160" y="276.0" width="240" height="20"/>
<rect x="160" y="276.0" width="15.2" height="20" rx="4" fill="#dea584" opacity="0.85"/>
<text class="lang-pct" x="410" y="290.0">6.3%</text>
<circle cx="30" cy="320.0" r="5" fill="#f34b7d"/>
<text class="lang-name" x="44" y="324.0">C++</text>
<rect class="bar-bg" x="160" y="310.0" width="240" height="20"/>
<rect x="160" y="310.0" width="10.7" height="20" rx="4" fill="#f34b7d" opacity="0.85"/>
<text class="lang-pct" x="410" y="324.0">4.4%</text>
<circle cx="30" cy="354.0" r="5" fill="#c6538c"/>
<text class="lang-name" x="44" y="358.0">SCSS</text>
<rect class="bar-bg" x="160" y="344.0" width="240" height="20"/>
<rect x="160" y="344.0" width="2.0" height="20" rx="4" fill="#c6538c" opacity="0.85"/>
<text class="lang-pct" x="410" y="358.0">0.2%</text>
<circle cx="30" cy="388.0" r="5" fill="#427819"/>
<text class="lang-name" x="44" y="392.0">Makefile</text>
<rect class="bar-bg" x="160" y="378.0" width="240" height="20"/>
<rect x="160" y="378.0" width="2.0" height="20" rx="4" fill="#427819" opacity="0.85"/>
<text class="lang-pct" x="410" y="392.0">0.2%</text>
<circle cx="30" cy="422.0" r="5" fill="#8b8b8b"/>
<text class="lang-name" x="44" y="426.0">Xmake</text>
<rect class="bar-bg" x="160" y="412.0" width="240" height="20"/>
<rect x="160" y="412.0" width="2.0" height="20" rx="4" fill="#8b8b8b" opacity="0.85"/>
<text class="lang-pct" x="410" y="426.0">0.1%</text>
<circle cx="30" cy="456.0" r="5" fill="#8b8b8b"/>
<text class="lang-name" x="44" y="460.0">Other</text>
<rect class="bar-bg" x="160" y="446.0" width="240" height="20"/>
<rect x="160" y="446.0" width="2.0" height="20" rx="4" fill="#8b8b8b" opacity="0.85"/>
<text class="lang-pct" x="410" y="460.0">0.1%</text>
</svg>